<svg overflow="hidden" viewBox="0, 0, 256, 105.34" id="dc32d362-3c91-4b9e-aab7-90295b0e896b" xmlns="http://www.w3.org/2000/svg" xmlns:xlink="http://www.w3.org/1999/xlink" xmlns:xml="http://www.w3.org/XML/1998/namespace" version="1.1">
	<defs />
	<path d="M156.57 62.27 C156.526 61.7509 156.911 61.2942 157.43 61.25 C157.949 61.2058 158.406 61.5909 158.45 62.11 C158.534 62.9968 158.957 63.817 159.63 64.4 C160.304 65.016 161.187 65.3521 162.1 65.34 L162.64 65.34 C164.394 65.2137 166.036 64.4319 167.24 63.15 C168.419 61.8697 169.05 60.1795 169 58.44 C169 58.31 169 58.14 169 57.94 C168.816 55.9231 167.864 54.0541 166.34 52.72 C164.807 51.3469 162.818 50.5946 160.76 50.61 C160.5 50.61 160.22 50.61 159.91 50.61 C157.164 50.8151 154.595 52.0426 152.71 54.05 C150.869 56.0453 149.873 58.676 149.93 61.39 C149.93 61.62 149.93 61.89 149.93 62.19 C150.218 65.3346 151.708 68.2469 154.09 70.32 C156.174 72.1966 158.815 73.3383 161.61 73.57 C161.996 73.5951 162.384 73.5951 162.77 73.57 L162.89 73.57 C167.96 73.48 171.22 72.19 173.47 70.3 C175.539 68.3963 177.109 66.013 178.04 63.36 C178.091 63.2203 178.173 63.0939 178.28 62.99 C178.673 62.6604 179.252 62.682 179.62 63.04 C185.771 69.7207 194.111 73.9777 203.13 75.04 C214.621 76.3613 226.117 72.6119 234.62 64.77 C240.543 59.2708 244.534 52.0079 246 44.06 C244.164 45.7225 242.179 47.2122 240.07 48.51 C224.3 58.1186 204.041 55.9278 190.69 43.17 C188.212 40.7854 186.045 38.0975 184.24 35.17 L184.24 35.17 C184.219 35.1388 184.203 35.1052 184.19 35.07 C183.715 34.0304 183.164 33.0276 182.54 32.07 C176.032 21.9986 163.131 18.2089 152.21 23.16 C151.174 23.6343 150.172 24.1789 149.21 24.79 L149.21 24.79 C149.083 24.871 148.94 24.9223 148.79 24.94 C148.281 24.9748 147.838 24.5977 147.79 24.09 C147.436 19.7812 145.251 15.8309 141.79 13.24 C138.573 10.8456 134.581 9.73352 130.59 10.12 C126.29 10.5291 122.367 12.7469 119.8 16.22 L119.8 16.22 C119.491 16.6249 118.927 16.7325 118.49 16.47 C114.627 13.772 110.165 12.0558 105.49 11.47 C100.097 10.8286 94.6314 11.6687 89.68 13.9 C80.2168 18.073 73.6721 26.9465 72.48 37.22 C72.48 37.69 72.36 38.15 72.3 38.6 C72.3 38.6 72.3 38.7 72.3 38.75 C72.2649 40.0001 72.3621 41.2504 72.59 42.48 C73.2022 45.7152 74.6658 48.7286 76.83 51.21 C79.7567 54.6459 83.8915 56.8261 88.38 57.3 C88.76 57.3 89.14 57.36 89.51 57.37 C93.3987 57.4912 97.1845 56.1087 100.08 53.51 C102.994 50.8542 104.801 47.1981 105.14 43.27 C105.14 42.87 105.21 42.47 105.22 42.06 C105.27 39.0825 104.199 36.1949 102.22 33.97 C100.337 31.7514 97.6809 30.332 94.79 30 C94.54 30 94.29 30 94.05 30 C91.5399 29.9148 89.0947 30.8075 87.23 32.49 C85.3653 34.2082 84.2127 36.5633 84 39.09 C84 39.35 84 39.61 84 39.87 C83.9694 41.2381 84.4508 42.5684 85.35 43.6 C86.2191 44.6206 87.447 45.2685 88.78 45.41 C89.2991 45.4569 89.6819 45.9159 89.635 46.435 C89.5881 46.9541 89.1292 47.3369 88.61 47.29 C86.996 47.1346 85.4847 46.4284 84.33 45.29 C84.1889 45.1541 84.0554 45.0105 83.93 44.86 C82.7193 43.4796 82.0699 41.6956 82.11 39.86 C82.11 39.54 82.11 39.24 82.17 38.94 C82.4079 35.9245 83.7758 33.1101 86 31.06 C88.2259 29.0494 91.1416 27.9748 94.14 28.06 L95.01 28.11 C98.4013 28.4701 101.526 30.1164 103.74 32.71 C106.007 35.2971 107.22 38.641 107.14 42.08 C107.14 42.53 107.14 42.98 107.06 43.42 C106.681 47.8206 104.656 51.9164 101.39 54.89 C98.134 57.8071 93.8794 59.3578 89.51 59.22 C89.08 59.22 88.66 59.22 88.24 59.14 C83.2726 58.6233 78.6937 56.2175 75.45 52.42 C73.3918 50.0478 71.9038 47.236 71.1 44.2 C69.72 48.68 67.72 51.35 65.5 52.79 C63.9567 53.7829 62.1432 54.2721 60.31 54.19 C58.6257 54.1294 56.9717 53.7244 55.45 53 C52.25 51.47 49.87 48.82 49.75 47.45 C49.5673 44.0501 47.6888 40.9694 44.75 39.25 C41.5999 37.461 37.7967 37.2392 34.46 38.65 C31.3054 40.0188 29.0507 42.8823 28.46 46.27 L28.46 46.27 L28.46 46.27 C27.9146 48.5076 26.6194 50.4909 24.79 51.89 C21.5 54.3484 17.0867 54.6873 13.46 52.76 C12.1789 52.0675 11.0633 51.1054 10.19 49.94 L10.13 50.39 C9.23859 57.8714 13.8079 64.925 21 67.17 C21.8956 67.4391 22.8121 67.6331 23.74 67.75 C26.2476 67.9955 28.7779 67.6531 31.13 66.75 C33.3559 65.8846 35.7509 65.5424 38.13 65.75 C40.3129 66.0092 42.3945 66.8177 44.18 68.1 C45.9604 69.3715 47.3967 71.0657 48.36 73.03 L48.36 73.14 C49.2585 75.3798 50.7022 77.3597 52.56 78.9 C56.7861 82.352 62.5535 83.2366 67.62 81.21 C69.8689 80.3131 71.8565 78.8654 73.4 77 L73.4 77 C73.519 76.8485 73.6839 76.7398 73.87 76.69 C74.3689 76.5753 74.8739 76.8558 75.04 77.34 C76.3024 81.9511 78.8974 86.0872 82.5 89.23 C88.8977 94.7332 97.6231 96.6734 105.75 94.4 C110.325 93.1046 114.418 90.493 117.52 86.89 L117.65 86.75 C118.053 86.431 118.633 86.4699 118.99 86.84 C122.71 91.1153 127.814 93.947 133.41 94.84 C137.081 95.4286 140.836 95.2033 144.41 94.18 C147.99 93.1674 151.3 91.3707 154.1 88.92 C158.068 85.4131 160.771 80.6967 161.79 75.5 C158.475 75.2896 155.327 73.9726 152.85 71.76 C150.11 69.3542 148.396 65.9905 148.06 62.36 C148.06 62.08 148.06 61.77 148.06 61.44 C147.998 58.2417 149.173 55.1428 151.34 52.79 C153.547 50.4308 156.559 48.9856 159.78 48.74 C160.07 48.74 160.39 48.74 160.78 48.74 C163.31 48.7145 165.758 49.6386 167.64 51.33 C169.53 52.9831 170.711 55.2997 170.94 57.8 C170.94 57.98 170.94 58.2 170.94 58.44 C170.988 60.6602 170.17 62.812 168.66 64.44 C167.141 66.0724 165.063 67.0722 162.84 67.24 L162.16 67.24 C160.782 67.2339 159.451 66.7336 158.41 65.83 C157.366 64.9207 156.708 63.6476 156.57 62.27 z" fill-rule="evenodd" style="fill:#BA8A3E;" />
</svg>
