<svg overflow="hidden" viewBox="0, 0, 256, 92.92" id="2f526009-4900-4aad-962c-490d40cb19fb" xmlns="http://www.w3.org/2000/svg" xmlns:xlink="http://www.w3.org/1999/xlink" xmlns:xml="http://www.w3.org/XML/1998/namespace" version="1.1"><defs /><path d="M236.81 70.76 C232.28 70.23 225.88 66.76 220.68 65.7 C215.48 64.64 210.95 66.37 206.29 65.7 C202.45 65.15 198.29 62.34 191.76 61.44 C192.09 60.1935 192.258 58.9095 192.26 57.62 C192.26 51.4908 188.673 45.9286 183.09 43.4 C183.142 42.9284 183.169 42.4544 183.17 41.98 C183.166 35.8231 179.185 30.374 173.32 28.5 C171.93 31.43 169.21 34.36 164.55 34.36 L164 34.36 C160.806 34.3584 157.908 32.4891 156.59 29.58 C155.516 27.2739 155.85 24.5576 157.45 22.58 C158.044 21.8758 159.096 21.7863 159.8 22.38 C160.504 22.9737 160.594 24.0258 160 24.73 C159.242 25.7665 159.123 27.1381 159.69 28.29 C160.513 30.0407 162.296 31.1365 164.23 31.08 C166.782 31.2472 169.171 29.8178 170.23 27.49 C170.502 26.4109 170.643 25.3029 170.65 24.19 C170.65 16.3531 164.297 10 156.46 10 C148.623 10 142.27 16.3531 142.27 24.19 C142.272 25.117 142.366 26.0415 142.55 26.95 C134.952 27.172 128.313 32.1425 125.96 39.37 C125.071 39.2509 124.176 39.1875 123.28 39.18 C115.059 39.186 107.612 44.034 104.28 51.55 C103.22 51.09 101.28 50.72 97.49 51.04 C89.69 51.71 78.9 62.1 78.9 62.1 C78.9 62.1 75.83 61.97 68.77 62.1 C61.71 62.23 44.46 64.84 39.77 63.77 C33.47 62.33 30.37 58.87 23.28 58.32 C18.2214 57.8925 13.2701 59.9469 10 63.83 C10 63.83 17.8 62 23.59 64 C27 65.17 27.65 72 37.65 72.27 C41.51 72.38 70.89 72.66 71.29 73.19 C71.69 73.72 68.5 75.46 69.43 75.86 C70.36 76.26 94.08 75.86 96.88 75.86 C99.68 75.86 101.01 76.79 104.5 78.73 C110.564 84.5354 120.186 84.326 125.991 78.2622 C128.466 75.6771 129.949 72.3015 130.18 68.73 C129.771 66.036 128.767 63.467 127.24 61.21 C124.883 57.6644 120.554 55.9799 116.42 57 C113.75 57.64 110.76 59.58 110.33 63.13 C110.01 65.9 111.01 68.13 113.02 69.13 C114.426 69.9075 116.172 69.7024 117.36 68.62 C118.009 67.9876 119.048 68.0011 119.68 68.65 C120.312 69.2989 120.299 70.3376 119.65 70.97 C117.442 72.9806 114.212 73.3924 111.57 72 C109.02 70.74 106.5 67.63 107.09 62.68 C107.6 58.31 110.89 54.89 115.66 53.75 C121.147 52.3783 126.901 54.6293 130 59.36 C131.888 62.1541 133.09 65.354 133.51 68.7 L152.16 68.7 C150.1 65.22 148.73 60.14 150.73 53.19 C152.193 47.4039 157.343 43.3098 163.31 43.19 C168.59 43.09 173.31 45.94 174.84 50.42 C176.74 55.82 174.46 59.54 171.94 61.07 C169.19 62.7904 165.604 62.2979 163.42 59.9 C162.801 59.2373 162.837 58.1986 163.5 57.58 C164.163 56.9614 165.201 56.9973 165.82 57.66 C166.942 58.9248 168.818 59.1837 170.24 58.27 C171.79 57.33 173.01 55.06 171.76 51.5 C170.66 48.37 167.28 46.35 163.4 46.5 C158.858 46.6165 154.955 49.7576 153.87 54.17 C151.42 62.71 154.8 67.74 157.34 70.17 C161.278 73.4892 166.27 75.2972 171.42 75.27 C182.61 75.4 191.42 69.93 197.6 71.01 C225 75.69 246 73.28 246 73.25 C245.73 71.62 241.34 71.3 236.81 70.76 z" style="fill:#B98F45 " /></svg>