<svg overflow="hidden" viewBox="0, 0, 256, 140.68" id="df635c77-0d69-46ec-90c4-9f3bd2a1b09d" xmlns="http://www.w3.org/2000/svg" xmlns:xlink="http://www.w3.org/1999/xlink" xmlns:xml="http://www.w3.org/XML/1998/namespace" version="1.1">
	<defs />
	<path d="M114.72 34.84 L114.87 34.94 C115.513 35.3294 115.719 36.1666 115.33 36.81 C114.941 37.4534 114.103 37.6594 113.46 37.27 L113.2 37.14 C111.951 36.5518 110.535 36.4208 109.2 36.77 C107.999 37.0911 106.988 37.8997 106.41 39 L106.32 39.18 C105.763 40.4553 105.763 41.9047 106.32 43.18 C106.895 44.6045 107.959 45.7778 109.32 46.49 L109.91 46.77 C112.714 48.1154 115.91 48.403 118.91 47.58 C121.657 46.8289 123.965 44.9659 125.28 42.44 L125.48 42.03 L125.48 42.03 C126.72 39.1582 126.72 35.9018 125.48 33.03 C124.24 29.9138 121.947 27.3307 119 25.73 L118.82 25.64 C118.5 25.47 118.19 25.33 117.92 25.2 L117.92 25.2 C113.572 23.1518 108.635 22.7262 104 24 C99.7011 25.1637 96.079 28.0614 94 32 C93.89 32.21 93.79 32.42 93.69 32.65 C91.7062 37.1412 91.6737 42.2539 93.6 46.77 C95.6002 51.6713 99.2896 55.6942 104 58.11 C104.4 58.3167 104.81 58.5167 105.23 58.71 C111.138 61.5223 117.858 62.1219 124.17 60.4 C130.029 58.7799 134.949 54.7945 137.75 49.4 C137.91 49.09 138.05 48.79 138.18 48.53 L138.18 48.53 C140.872 42.4259 140.919 35.48 138.31 29.34 C135.597 22.7142 130.607 17.2745 124.24 14 L124.18 14 C124.057 13.9341 123.943 13.8535 123.84 13.76 C121.346 12.3959 118.673 11.3862 115.9 10.76 C112.821 10.0715 109.654 9.85574 106.51 10.12 C100.455 10.617 94.6862 12.9079 89.94 16.7 C85.1832 20.5127 81.6562 25.6433 79.8 31.45 L79.8 31.45 C79.6014 32.082 78.9764 32.4789 78.32 32.39 C76.8882 32.1999 75.4442 32.1163 74 32.14 C67.1439 32.2673 60.5324 34.7096 55.24 39.07 C49.7476 43.5873 46.1738 50.0202 45.24 57.07 C45.0429 58.5952 44.9527 60.1322 44.97 61.67 C44.9752 61.7332 44.9752 61.7968 44.97 61.86 C44.8889 63.0832 44.7454 64.3014 44.54 65.51 C43.1071 73.7255 38.6649 81.1126 32.08 86.23 C25.8108 91.1822 17.9838 93.7416 10 93.45 C25.415 105.685 46.0141 109.193 64.61 102.75 C64.51 102.06 64.44 101.37 64.4 100.75 C63.4868 89.2853 71.5038 79.0305 82.85 77.15 C83.864 76.957 84.8895 76.8301 85.92 76.77 C96.6686 76.0147 105.994 84.1158 106.75 94.8644 C106.75 94.8663 106.75 94.8681 106.75 94.87 C107.322 102.714 101.828 109.704 94.07 111 C93.3764 111.132 92.6749 111.219 91.97 111.26 C86.697 111.501 82.032 107.871 80.97 102.7 C80.9 102.31 80.86 101.94 80.83 101.57 C80.7358 99.9964 81.0821 98.4277 81.83 97.04 C82.0594 96.6209 82.3201 96.2198 82.61 95.84 C84.1673 93.9343 86.4529 92.7698 88.91 92.63 C89.6749 92.6051 90.3151 93.2051 90.34 93.97 C90.3649 94.7349 89.7649 95.3751 89 95.4 C88.7282 95.4167 88.4577 95.4501 88.19 95.5 C85.2967 95.9569 83.2567 98.5837 83.53 101.5 C83.5479 101.765 83.5813 102.029 83.63 102.29 C84.4408 106.104 87.8837 108.778 91.78 108.62 C92.3738 108.587 92.965 108.517 93.55 108.41 C100.005 107.362 104.561 101.515 104 95 C103.961 94.4096 103.887 93.8219 103.78 93.24 C102.011 84.9666 94.5439 79.167 86.09 79.5 C85.1677 79.5565 84.2495 79.6666 83.34 79.83 C73.3784 81.4763 66.3353 90.4746 67.13 100.54 C67.176 101.338 67.2662 102.132 67.4 102.92 C67.4736 103.044 67.5276 103.179 67.56 103.32 C69.1816 110.862 73.2832 117.642 79.21 122.58 C90.2192 131.498 105.401 133.222 118.13 127 C125.035 123.525 130.579 117.84 133.88 110.85 C133.899 110.801 133.923 110.755 133.95 110.71 C134.346 110.068 135.186 109.867 135.83 110.26 C144.06 115.26 152.04 116.79 158.99 115.94 C165.549 115.183 171.638 112.163 176.21 107.4 C176.281 107.252 176.376 107.117 176.49 107 L176.71 106.78 C176.98 106.5 177.24 106.22 177.48 105.94 C177.72 105.66 177.84 105.49 178.01 105.26 L178.01 105.26 C178.08 105.162 178.164 105.074 178.26 105 C180.816 101.729 182.105 97.6454 181.89 93.5 C181.608 89.2431 179.776 85.2371 176.74 82.24 C176.192 81.6444 175.611 81.0802 175 80.55 C172.138 78.3767 168.586 77.3112 165 77.55 C161.407 77.7058 157.996 79.1714 155.41 81.67 C155.055 82.0342 154.721 82.4182 154.41 82.82 C150.817 87.2031 151.187 93.6092 155.26 97.55 C155.632 97.9037 156.023 98.2375 156.43 98.55 C157.732 99.5417 159.347 100.032 160.98 99.93 C162.604 99.8572 164.147 99.1961 165.32 98.07 C165.488 97.9071 165.645 97.7334 165.79 97.55 C167.377 95.6301 167.211 92.8107 165.41 91.09 C165.247 90.9227 165.073 90.7658 164.89 90.62 C164.299 90.1533 164.198 89.2959 164.665 88.705 C165.132 88.1141 165.989 88.0133 166.58 88.48 C166.852 88.6887 167.109 88.9159 167.35 89.16 C168.68 90.4746 169.477 92.2336 169.59 94.1 C169.625 94.4759 169.625 94.8541 169.59 95.23 C169.44 96.6936 168.871 98.0827 167.95 99.23 C167.739 99.497 167.512 99.7508 167.27 99.99 C163.837 103.264 158.533 103.556 154.76 100.68 C154.262 100.288 153.788 99.8676 153.34 99.42 C148.304 94.4857 147.87 86.5224 152.34 81.07 C152.727 80.5778 153.145 80.1102 153.59 79.67 C159.969 73.6043 169.808 73.0662 176.81 78.4 C177.533 78.9715 178.221 79.586 178.87 80.24 C182.374 83.7009 184.487 88.326 184.81 93.24 C185.045 97.6524 183.799 102.017 181.27 105.64 C191.989 112.448 206.145 109.831 213.72 99.64 C214.029 99.1961 214.568 98.9733 215.1 99.07 C226.356 101.213 237.94 97.6136 246 89.47 C236.173 90.7139 226.803 84.9578 223.47 75.63 C223.221 74.9246 223.007 74.207 222.83 73.48 C222.825 73.4268 222.825 73.3732 222.83 73.32 C221.977 67.1634 217.784 61.9856 211.94 59.87 C209.084 58.8073 206.004 58.4873 202.99 58.94 C200.07 59.3607 197.313 60.5476 195 62.38 C194.899 62.4734 194.784 62.551 194.66 62.61 C193.972 62.9225 193.161 62.6238 192.84 61.94 C189.625 55.0634 184.131 49.5098 177.29 46.22 C176.805 46.0058 176.489 45.5297 176.48 45 C176.22 34.3711 171.142 24.4368 162.68 18 C156.395 13.1305 148.629 10.5644 140.68 10.73 C137.941 10.7997 135.22 11.1856 132.57 11.88 C131.31 12.2 130.12 12.57 128.99 12.97 L128.31 13.22 C133.926 16.8423 138.293 22.1031 140.82 28.29 C143.713 35.1292 143.648 42.8605 140.64 49.65 L140.64 49.65 L140.16 50.65 C137.012 56.7053 131.487 61.179 124.91 63 C117.975 64.9053 110.586 64.2559 104.09 61.17 C103.65 60.97 103.2 60.75 102.75 60.52 C97.4382 57.8216 93.2695 53.3087 91 47.8 C88.7945 42.5838 88.8452 36.6876 91.14 31.51 C91.26 31.26 91.38 31.01 91.51 30.76 C93.9177 26.1332 98.142 22.7168 103.17 21.33 C108.452 19.8725 114.082 20.366 119.03 22.72 L119.03 22.72 L120.03 23.21 L120.08 23.21 C123.701 25.0598 126.54 28.1465 128.08 31.91 C129.598 35.5033 129.562 39.5644 127.98 43.13 L127.98 43.13 C127.89 43.33 127.81 43.5 127.73 43.65 C126.082 46.8357 123.184 49.1936 119.73 50.16 C116.105 51.1621 112.24 50.8285 108.84 49.22 L108.15 48.88 C106.188 47.873 104.649 46.1995 103.81 44.16 C102.983 42.1883 103.008 39.9623 103.88 38.01 L104.02 37.72 C104.938 35.9572 106.546 34.6538 108.46 34.12 C110.431 33.5741 112.532 33.7551 114.38 34.63 z" fill-rule="evenodd" style="fill:#BA8A3E;" />
</svg>
