<svg overflow="hidden" viewBox="0, 0, 256, 119.62" id="82aea206-14fc-4b0f-a6e9-0555863cdc10" xmlns="http://www.w3.org/2000/svg" xmlns:xlink="http://www.w3.org/1999/xlink" xmlns:xml="http://www.w3.org/XML/1998/namespace" version="1.1">
	<defs />
	<path d="M237.37 53.42 C232 53.58 234.74 49.56 237.06 45.48 C239.95 40.4 239.8 30.15 231.38 27.79 C214.69 23.1 214.69 39.27 214.69 39.27 C214.69 39.27 220.87 29.73 226.74 36.52 C231.32 41.83 224.95 51.74 213.4 52.41 C200.78 53.14 199.4 44.51 187.68 43.92 C180.4 43.55 174.51 49.53 174.51 49.53 C174.51 49.53 166.51 41.86 156.03 41.61 C145.55 41.36 139.26 46.39 139.26 46.39 L134.64 42.09 C139.169 29.6975 132.794 15.9801 120.401 11.4513 C117.761 10.4864 114.971 9.99513 112.16 10 C102.56 10 93.38 15.29 90.47 23.82 C89.16 27.67 89.56 32.32 91.62 36.92 C94.17 42.62 99.04 46.09 104.62 46.21 C109.07 46.4795 113.27 44.1372 115.38 40.21 C116.61 37.75 116.64 35.44 115.47 33.71 C114.575 32.3139 113.007 31.496 111.35 31.56 C110.324 31.6212 109.426 32.2729 109.05 33.23 C108.49 34.182 107.264 34.4996 106.312 33.9394 C105.497 33.4601 105.13 32.4761 105.43 31.58 C106.406 29.3124 108.559 27.7723 111.02 27.58 C114.105 27.4107 117.05 28.8867 118.76 31.46 C120.76 34.39 120.76 38.22 118.93 41.96 C116.214 47.1473 110.783 50.3363 104.93 50.18 L104.55 50.18 C97.38 50 91.19 45.68 88 38.54 C85.8527 33.728 85.3161 28.3514 86.47 23.21 C85.91 23.21 85.33 23.1 84.75 23.1 C77.2007 23.1015 70.0979 26.677 65.6 32.74 C69.22 33.67 74.41 35.66 77.69 39.74 C80.2081 42.9136 81.2719 47.0016 80.62 51 C79.55 59.52 73.62 62.47 68.56 62.47 L67.76 62.47 C62.66 62.15 57.38 58.73 57.38 53.56 C57.38 50.56 58.27 48.23 60.02 46.74 C61.6646 45.4202 63.7826 44.8409 65.87 45.14 C66.9735 45.0903 67.9083 45.9446 67.958 47.048 C68.0076 48.1515 67.1534 49.0863 66.05 49.136 C65.7701 49.1486 65.4908 49.1022 65.23 49 C64.2861 48.8992 63.3391 49.16 62.58 49.73 C61.76 50.43 61.35 51.73 61.35 53.51 C61.35 56.01 64.35 58.23 68.01 58.51 C69.8 58.63 75.7 58.37 76.68 50.51 C77.1762 47.6009 76.4168 44.6177 74.59 42.3 C70.31 36.94 63.53 35.88 59.84 35.85 C51.6826 35.8394 44.6438 41.5699 43 49.56 C41.1189 53.1782 38.1203 56.0927 34.45 57.87 C25.56 62.23 20.7 56.87 10.03 67.41 L43.31 67.41 C34.8821 73.8027 33.2323 85.8171 39.625 94.245 C46.0177 102.673 58.0321 104.323 66.46 97.93 C70.6781 107.731 82.0428 112.257 91.8438 108.039 C94.1506 107.046 96.2416 105.613 98 103.82 C103 99.75 106.61 97.82 108.67 100.24 C110.73 102.66 120.44 107.24 132.08 103.83 C143.72 100.42 147.61 97.3 157.63 99.17 C167.65 101.04 175.91 97.17 180.76 90.3 C174.94 93.12 168.63 94.1 163.62 90.3 C158.61 86.5 153.11 80.18 144.7 81.15 C144.84 80.47 142.92 64.82 129.12 64.05 C124.24 63.78 120.12 65.05 117.41 67.66 C115.4 69.6409 114.365 72.4064 114.58 75.22 C114.81 79.3 117.75 81.58 120.4 81.64 C122.73 81.73 124.09 80.2 124.4 77.55 C124.513 76.4454 125.5 75.6418 126.605 75.755 C127.71 75.8682 128.513 76.8554 128.4 77.96 C127.83 83.27 124.11 85.61 120.58 85.61 L120.38 85.61 C115.96 85.5 111.06 81.9 110.7 75.44 C110.429 71.4932 111.889 67.6241 114.7 64.84 C118.19 61.39 123.44 59.7 129.47 60.09 C138.6 60.69 143.77 67.09 146.47 72.09 C152.63 72.18 169.96 72.25 171.15 70.19 C172.61 67.68 163.23 64.28 165.34 62.83 C167.45 61.38 182.47 61.65 191.85 63.54 C201.23 65.43 210.78 66.99 216.92 63.54 C223.06 60.09 230.32 59.47 232.46 63.54 C234.75 68.05 229 71 229 71 C229 71 241.69 74.31 245.33 65.66 C247.93 59.34 242.7 53.26 237.37 53.42 z" style="fill:#A57D3C;" />
</svg>
